<?xml version="1.0" encoding="utf-8"?>
<!-- Generator: Adobe Illustrator 19.2.1, SVG Export Plug-In . SVG Version: 6.00 Build 0)  -->
<!DOCTYPE svg PUBLIC "-//W3C//DTD SVG 1.1//EN" "http://www.w3.org/Graphics/SVG/1.1/DTD/svg11.dtd">
<svg version="1.1" id="Layer_1" xmlns="http://www.w3.org/2000/svg" xmlns:xlink="http://www.w3.org/1999/xlink" x="0px" y="0px"
	 viewBox="0 0 300 150" style="enable-background:new 0 0 300 150;" xml:space="preserve">
<style type="text/css">
	.st0{fill:#FFC23B;}
</style>
<path class="st0" d="M90.5,75c0,33.1,26.8,59.9,59.9,59.9s59.9-26.8,59.9-59.9s-26.8-59.9-59.9-59.9S90.5,41.9,90.5,75z M96.6,75
	c0-29.7,24.1-53.8,53.7-53.8s53.7,24.1,53.7,53.8s-24.1,53.8-53.7,53.8S96.6,104.7,96.6,75z"/>
<path class="st0" d="M150.3,39.5c4.4,0,8.2,2.6,10.1,6.3c-1,0.6-1.9,1.3-2.8,2.1c-2,2-4.5,3-7.3,3c-2.7,0-5.3-1-7.3-3
	c-0.9-0.9-1.8-1.6-2.8-2.1C142.1,42,145.9,39.5,150.3,39.5z M161.5,49.4c0.1,0.4,0.1,0.8,0.1,1.2c0,7.2,5.9,13.1,13.1,13.1
	c0.4,0,0.8,0,1.2,0.1c-0.3,0.5-0.7,0.9-1,1.3c-2.7,2.7-4.1,6.1-4.1,9.9c0,3.7,1.5,7.3,4.1,9.9c0.4,0.4,0.8,0.8,1,1.3
	c-0.4,0.1-0.8,0.1-1.2,0.1c-7.2,0-13.1,5.9-13.1,13.1c0,0.4,0,0.8-0.1,1.2c-0.5-0.3-0.9-0.7-1.3-1.1c-2.7-2.7-6.1-4.1-9.9-4.1
	c-3.8,0-7.3,1.5-9.9,4.1c-0.4,0.4-0.8,0.8-1.3,1.1c-0.1-0.4-0.1-0.8-0.1-1.2c0-7.2-5.9-13.1-13.1-13.1c-0.4,0-0.8,0-1.2-0.1
	c0.3-0.5,0.7-0.9,1-1.3c2.7-2.7,4.1-6.1,4.1-9.9c0-3.7-1.5-7.3-4.1-9.9c-0.4-0.4-0.8-0.8-1-1.3c0.4-0.1,0.8-0.1,1.2-0.1
	c7.2,0,13.1-5.9,13.1-13.1c0-0.4,0-0.8,0.1-1.2c0.5,0.3,0.9,0.7,1.3,1.1c2.7,2.7,6.1,4.1,9.9,4.1c3.8,0,7.3-1.5,9.9-4.1
	C160.7,50.1,161.1,49.8,161.5,49.4z M179.6,64.9c3.7,1.9,6.3,5.7,6.3,10.1c0,4.4-2.6,8.2-6.3,10.1c-0.6-1-1.3-1.9-2.1-2.8
	c-2-2-3-4.5-3-7.3c0-2.8,1-5.3,3-7.3C178.3,66.9,179,66,179.6,64.9z M160.4,104.3c-1.9,3.7-5.7,6.3-10.1,6.3
	c-4.4,0-8.2-2.6-10.1-6.3c1-0.6,2-1.3,2.8-2.1c2-2,4.5-3,7.3-3c2.7,0,5.3,1,7.3,3C158.5,103,159.4,103.7,160.4,104.3z M121,85.1
	c-3.7-1.9-6.3-5.7-6.3-10.1c0-4.4,2.6-8.2,6.3-10.1c0.6,1,1.3,1.9,2.1,2.8c2,2,3,4.5,3,7.3s-1.1,5.3-3,7.3
	C122.4,83.1,121.7,84.1,121,85.1z M150.3,112.4c5.2,0,9.6-3,11.7-7.3c1.7,0.7,3.5,1.1,5.5,1.1c3.8,0,7.3-1.5,9.9-4.1
	c2.7-2.7,4.1-6.1,4.1-9.9c0-1.9-0.4-3.8-1.1-5.5c4.3-2.1,7.3-6.6,7.3-11.7s-3-9.6-7.3-11.7c0.7-1.7,1.1-3.5,1.1-5.5
	c0-3.7-1.5-7.3-4.1-9.9c-2.7-2.7-6.1-4.1-9.9-4.1c-1.9,0-3.8,0.4-5.5,1.1c-2.1-4.3-6.6-7.4-11.7-7.4c-5.2,0-9.6,3-11.7,7.4
	c-1.7-0.7-3.5-1.1-5.5-1.1c-3.8,0-7.3,1.5-9.9,4.1s-4.1,6.1-4.1,9.9c0,1.9,0.3,3.8,1.1,5.5c-4.3,2.1-7.3,6.6-7.3,11.7
	s3,9.6,7.3,11.7c-0.7,1.7-1.1,3.5-1.1,5.5c0,3.7,1.5,7.3,4.1,9.9c2.7,2.7,6.1,4.1,9.9,4.1c1.9,0,3.8-0.4,5.5-1.1
	C140.8,109.4,145.2,112.4,150.3,112.4z M163.2,101.6c0.1-0.8,0.2-1.5,0.2-2.3c0-6.2,5-11.3,11.3-11.3c0.8,0,1.5-0.1,2.3-0.2
	c0.6,1.3,0.9,2.8,0.9,4.3c0,2.7-1.1,5.3-3,7.3c-2,2-4.5,3-7.3,3C166,102.5,164.6,102.2,163.2,101.6z M176.9,62.1
	c-0.8-0.1-1.5-0.2-2.3-0.2c-6.2,0-11.3-5-11.3-11.3c0-0.8-0.1-1.5-0.2-2.3c1.3-0.6,2.8-0.9,4.3-0.9c2.8,0,5.3,1,7.3,3
	c1.9,2,3,4.5,3,7.3C177.8,59.3,177.5,60.8,176.9,62.1z M137.5,48.4c-0.1,0.8-0.2,1.5-0.2,2.3c0,6.2-5,11.3-11.3,11.3
	c-0.8,0-1.5,0.1-2.3,0.2c-0.6-1.3-0.9-2.8-0.9-4.3c0-2.7,1.1-5.3,3-7.3c2-2,4.5-3,7.3-3C134.7,47.5,136.1,47.9,137.5,48.4z
	 M123.8,87.9c0.8,0.1,1.5,0.2,2.3,0.2c6.2,0,11.3,5,11.3,11.3c0,0.8,0.1,1.5,0.2,2.3c-1.3,0.6-2.8,0.9-4.3,0.9c-2.8,0-5.3-1-7.3-3
	c-2-2-3-4.5-3-7.3C122.8,90.7,123.1,89.2,123.8,87.9z"/>
</svg>
