<?xml version="1.0" encoding="utf-8"?>
<!-- Generator: Adobe Illustrator 19.2.1, SVG Export Plug-In . SVG Version: 6.00 Build 0)  -->
<!DOCTYPE svg PUBLIC "-//W3C//DTD SVG 1.1//EN" "http://www.w3.org/Graphics/SVG/1.1/DTD/svg11.dtd">
<svg version="1.1" id="Layer_1" xmlns="http://www.w3.org/2000/svg" xmlns:xlink="http://www.w3.org/1999/xlink" x="0px" y="0px"
	 viewBox="0 0 300 150" style="enable-background:new 0 0 300 150;" xml:space="preserve">
<style type="text/css">
	.st0{fill:#FFC23B;}
</style>
<g>
	<g>
		<g>
			<g>
				<path class="st0" d="M91.5,60.3"/>
			</g>
			<g>
				<circle class="st0" cx="90.4" cy="40.9" r="1.8"/>
			</g>
			<g>
				<polygon class="st0" points="101.9,48.7 95.9,42.8 91.1,48.7 				"/>
			</g>
			<path class="st0" d="M92.7,58.4c0,0-2.3-11.7-17.5-8.5c-1.5-5.3-1.3-9.1,2.1-12.7C81.8,32.4,89,35,89,35v-4
				c-2.5-1.1-4.9-1.3-7.6-1.3c-9.8,0-15.2,7.3-17.5,12.2L36.5,92.4l7.7-1.5L30,118.4l9.9-1.8L47.5,95C69,95,96.5,87.3,92.7,58.4z
				 M83.1,62.5C83,62.9,83,63.2,83,63.6c-0.1,0.4-0.1,0.8-0.2,1.3c-0.1,0.4-0.2,0.9-0.3,1.4c-0.1,0.5-0.3,1-0.4,1.5
				c-0.1,0.6-0.4,1.1-0.6,1.7c-0.2,0.6-0.4,1.1-0.7,1.8c-0.1,0.3-0.3,0.6-0.4,0.8c-0.1,0.1-0.1,0.3-0.2,0.4S80,72.8,80,72.9
				c-0.1,0.3-0.4,0.6-0.5,0.9c-0.2,0.3-0.4,0.6-0.6,0.8c-0.1,0.1-0.2,0.3-0.3,0.4l-0.3,0.4c-0.2,0.3-0.4,0.6-0.6,0.8
				c-0.5,0.6-0.9,1.1-1.5,1.6c-0.5,0.6-1.1,1-1.6,1.5l-0.8,0.7c-0.3,0.2-0.6,0.4-0.9,0.6c-1.2,0.8-2.5,1.6-3.7,2.3
				c-1.3,0.6-2.6,1.3-3.9,1.8c-1.3,0.5-2.5,0.9-3.7,1.3c-1.1,0.4-2.1,0.6-3.2,0.8c-0.1,0-0.1,0.1-0.2,0.1c-2.1,0.6-3.9,1-5.1,1.3
				c-1.3,0.3-2,0.4-2,0.4s0.7-0.1,1.8-0.6c1.3-0.2,3.1-0.6,5.2-1.1c0.1,0,0.2-0.1,0.3-0.1c1-0.3,2-0.6,3.2-1
				c1.2-0.4,2.5-0.8,3.7-1.4c1.3-0.5,2.5-1.1,3.8-1.8s2.5-1.5,3.6-2.4c0.3-0.2,0.6-0.4,0.8-0.7l0.8-0.7c0.5-0.5,1.1-1,1.5-1.5
				c0.5-0.5,0.9-1.1,1.3-1.6c0.2-0.3,0.4-0.6,0.6-0.8l0.3-0.4l0.3-0.4c0.1-0.3,0.4-0.6,0.5-0.8c0.1-0.3,0.3-0.6,0.5-0.8
				c0.1-0.1,0.1-0.3,0.2-0.4c0.1-0.1,0.1-0.3,0.2-0.4c0.1-0.3,0.3-0.6,0.4-0.8c0.2-0.6,0.4-1.1,0.6-1.7c0.1-0.6,0.4-1.1,0.5-1.6
				c0.1-0.5,0.2-1.1,0.4-1.5c0.1-0.5,0.1-0.9,0.2-1.4c0.1-0.4,0.1-0.8,0.1-1.2c0.1-0.4,0.1-0.7,0.1-1.1c0.1-1.3,0.1-2,0.1-2l1.1,0.1
				C83.3,60.5,83.2,61.3,83.1,62.5z"/>
		</g>
	</g>
	<g>
		<path class="st0" d="M119.2,88.7H113l-8.9-25.6h5.6l6.3,19.3l6.3-19.3h5.6l6.3,19.3l6.3-19.3h5.6l-8.6,25.6h-6.2l-6-17.5
			L119.2,88.7z"/>
		<path class="st0" d="M170.6,88.7h-4.9v-3.4c-2.1,2.5-4.9,3.8-8.5,3.8c-2.7,0-4.8-0.8-6.6-2.2c-1.8-1.5-2.6-3.5-2.6-6
			c0-2.5,0.9-4.4,2.8-5.6c1.8-1.3,4.4-1.9,7.5-1.9h7v-1c0-3.4-1.9-5.1-5.7-5.1c-2.4,0-4.8,0.8-7.4,2.6l-2.4-3.4
			c3.1-2.5,6.6-3.7,10.6-3.7c3,0,5.5,0.8,7.4,2.2c1.9,1.5,2.9,3.9,2.9,7.2L170.6,88.7C170.7,88.7,170.6,88.7,170.6,88.7z
			 M165.2,79.1v-2.2h-6c-3.9,0-5.8,1.2-5.8,3.7c0,1.3,0.5,2.2,1.5,2.9c1,0.6,2.3,1,4,1s3.2-0.5,4.5-1.5
			C164.5,82.1,165.2,80.8,165.2,79.1z"/>
		<path class="st0" d="M199.8,63.1v22.3c0,4.5-1.2,7.9-3.7,10.2s-5.6,3.4-9.4,3.4c-3.9,0-7.3-1.2-10.4-3.6l2.5-4.1
			c2.5,1.9,5,2.8,7.6,2.8c2.5,0,4.6-0.6,6-2c1.5-1.3,2.2-3.4,2.2-6.3v-3.3c-0.8,1.5-2,2.7-3.4,3.6c-1.5,0.9-3.2,1.3-5,1.3
			c-3.4,0-6.2-1.2-8.4-3.6s-3.3-5.3-3.3-8.9c0-3.5,1.1-6.5,3.3-8.9c2.2-2.4,5-3.6,8.4-3.6s6.1,1.4,8.2,4.2v-3.8h5.3L199.8,63.1
			L199.8,63.1z M179.9,74.9c0,2.1,0.6,3.9,2,5.4c1.3,1.5,3,2.2,5.3,2.2c2.2,0,4-0.7,5.3-2.2c1.3-1.5,2-3.3,2-5.5s-0.7-4.1-2-5.6
			c-1.4-1.5-3.2-2.2-5.3-2.2s-3.9,0.8-5.2,2.4C180.5,71,179.9,72.8,179.9,74.9z"/>
		<path class="st0" d="M213.3,67.4v13c0,1.2,0.4,2.2,1,2.9s1.5,1.1,2.7,1.1c1.1,0,2.2-0.6,3.3-1.7l2.2,3.8c-1.9,1.7-4,2.5-6.3,2.5
			c-2.3,0-4.2-0.8-5.8-2.4c-1.6-1.6-2.5-3.7-2.5-6.4V67.4h-3.2V63h3.2v-7.9h5.4v8h6.7v4.4L213.3,67.4L213.3,67.4L213.3,67.4z"/>
		<path class="st0" d="M247.4,88.7h-4.9v-3.4c-2.1,2.5-4.9,3.8-8.5,3.8c-2.7,0-4.8-0.8-6.6-2.2c-1.8-1.5-2.6-3.5-2.6-6
			c0-2.5,0.9-4.4,2.8-5.6c1.8-1.3,4.4-1.9,7.5-1.9h7v-1c0-3.4-1.9-5.1-5.7-5.1c-2.4,0-4.8,0.8-7.4,2.6l-2.4-3.4
			c3.1-2.5,6.6-3.7,10.6-3.7c3,0,5.5,0.8,7.4,2.2c1.9,1.5,2.9,3.9,2.9,7.2L247.4,88.7C247.5,88.7,247.4,88.7,247.4,88.7z M242,79.1
			v-2.2h-6c-3.9,0-5.8,1.2-5.8,3.7c0,1.3,0.5,2.2,1.5,2.9c1,0.6,2.3,1,4,1c1.7,0,3.2-0.5,4.5-1.5C241.4,82.1,242,80.8,242,79.1z"/>
		<path class="st0" d="M254.3,58c-0.7-0.7-1-1.5-1-2.4c0-0.9,0.4-1.8,1-2.4c0.7-0.7,1.5-1,2.4-1s1.8,0.4,2.4,1c0.7,0.7,1,1.5,1,2.4
			c0,0.9-0.4,1.8-1,2.4c-0.6,0.6-1.5,1-2.4,1C255.8,59,255,58.7,254.3,58z M259.4,88.7H254V63.1h5.4V88.7z"/>
		<path class="st0" d="M270.6,88.7h-5.4V53h5.4V88.7z"/>
	</g>
</g>
</svg>
