<?xml version="1.0" encoding="utf-8"?>
<!-- Generator: Adobe Illustrator 19.2.1, SVG Export Plug-In . SVG Version: 6.00 Build 0)  -->
<!DOCTYPE svg PUBLIC "-//W3C//DTD SVG 1.1//EN" "http://www.w3.org/Graphics/SVG/1.1/DTD/svg11.dtd">
<svg version="1.1" id="Layer_1" xmlns="http://www.w3.org/2000/svg" xmlns:xlink="http://www.w3.org/1999/xlink" x="0px" y="0px"
	 viewBox="0 0 300 150" style="enable-background:new 0 0 300 150;" xml:space="preserve">
<style type="text/css">
	.st0{fill:#FFC23B;}
</style>
<path class="st0" d="M89.3,14v120.8h120.8V14H89.3z M155.1,108.2c0,11.7-6.9,17.1-16.9,17.1c-9.1,0-14.3-4.7-17-10.4l0,0l0,0l0,0
	l9.2-5.6c1.8,3.2,3.4,5.8,7.3,5.8c3.7,0,6.1-1.5,6.1-7.1V69.5h11.4L155.1,108.2L155.1,108.2L155.1,108.2z M181.9,125.3
	c-10.5,0-17.4-5-20.7-11.6l0,0l9.2-5.3c2.5,4,5.6,6.9,11.2,6.9c4.7,0,7.7-2.4,7.7-5.6c0-3.9-3.1-5.3-8.3-7.5l-2.8-1.2
	c-8.2-3.5-13.6-7.9-13.6-17.1c0-8.5,6.5-15,16.6-15c7.2,0,12.4,2.5,16.1,9.1l-8.8,5.7c-1.9-3.5-4.1-4.9-7.3-4.9
	c-3.3,0-5.4,2.1-5.4,4.9c0,3.4,2.1,4.8,7,6.9l2.8,1.2c9.6,4.2,15.1,8.4,15.1,17.8C200.7,119.7,192.7,125.3,181.9,125.3z"/>
</svg>
