<?xml version="1.0" encoding="utf-8"?>
<!-- Generator: Adobe Illustrator 19.2.1, SVG Export Plug-In . SVG Version: 6.00 Build 0)  -->
<!DOCTYPE svg PUBLIC "-//W3C//DTD SVG 1.1//EN" "http://www.w3.org/Graphics/SVG/1.1/DTD/svg11.dtd">
<svg version="1.1" id="Layer_1" xmlns="http://www.w3.org/2000/svg" xmlns:xlink="http://www.w3.org/1999/xlink" x="0px" y="0px"
	 viewBox="0 0 300 150" style="enable-background:new 0 0 300 150;" xml:space="preserve">
<style type="text/css">
	.st0{fill:#FFC23B;fill-opacity:0.45;}
	.st1{fill:#FFC23B;}
</style>
<g>
	<path class="st0" d="M80.5,30.9l69.9-14v10.5L80.5,37.9V30.9z"/>
	<path class="st1" d="M150.5,16.9l69.9,14v7l-69.9-10.5V16.9z"/>
	<path class="st0" d="M80.5,44.2v64.4l15.7,1.7V70.1l15.7,29l16.4-29v45.1l18.5,2.4V35.1L127,37.9l-15,29L97,42.5L80.5,44.2z"/>
	<path class="st1" d="M220.4,44.2v64.4l-15.7,1.7V70.1l-15.7,29l-16.4-29v45.1l-18.5,2.4V35.1l19.9,2.8l15,29l15-24.5L220.4,44.2z"
		/>
	<path class="st0" d="M80.5,121.9l69.9,14v-10.5l-69.9-10.5V121.9z"/>
	<path class="st1" d="M150.5,135.9l69.9-14v-7l-69.9,10.5V135.9z"/>
</g>
</svg>
