<?xml version="1.0" encoding="utf-8"?>
<!-- Generator: Adobe Illustrator 19.2.1, SVG Export Plug-In . SVG Version: 6.00 Build 0)  -->
<!DOCTYPE svg PUBLIC "-//W3C//DTD SVG 1.1//EN" "http://www.w3.org/Graphics/SVG/1.1/DTD/svg11.dtd">
<svg version="1.1" id="Layer_1" xmlns="http://www.w3.org/2000/svg" xmlns:xlink="http://www.w3.org/1999/xlink" x="0px" y="0px"
	 viewBox="0 0 300 150" style="enable-background:new 0 0 300 150;" xml:space="preserve">
<style type="text/css">
	.st0{fill:#FFC23B;}
</style>
<path class="st0" d="M90.5,75.9c0,32.7,26.5,59.3,59.3,59.3S209,108.6,209,75.9s-26.5-59.3-59.3-59.3S90.5,43.1,90.5,75.9z
	 M96.5,75.9c0-29.4,23.8-53.3,53.2-53.3s53.2,23.8,53.2,53.3s-23.8,53.3-53.2,53.3S96.5,105.3,96.5,75.9z"/>
<path class="st0" d="M149.7,40.7c4.4,0,8.2,2.5,10,6.2c-1,0.6-1.9,1.3-2.8,2.1c-2,2-4.5,3-7.2,3c-2.7,0-5.3-1-7.2-3
	c-0.9-0.9-1.8-1.6-2.8-2.1C141.6,43.2,145.4,40.7,149.7,40.7z M160.8,50.5c0.1,0.4,0.1,0.8,0.1,1.2c0,7.1,5.8,13,13,13
	c0.4,0,0.8,0,1.2,0.1c-0.3,0.5-0.7,0.9-1,1.3c-2.6,2.6-4.1,6.1-4.1,9.8c0,3.7,1.4,7.2,4.1,9.8c0.4,0.4,0.7,0.8,1,1.3
	c-0.4,0.1-0.8,0.1-1.2,0.1c-7.1,0-13,5.8-13,13c0,0.4,0,0.8-0.1,1.2c-0.5-0.3-0.9-0.7-1.3-1.1c-2.6-2.6-6.1-4.1-9.8-4.1
	s-7.2,1.4-9.8,4.1c-0.4,0.4-0.8,0.7-1.3,1.1c-0.1-0.4-0.1-0.8-0.1-1.2c0-7.1-5.8-13-13-13c-0.4,0-0.8,0-1.2-0.1
	c0.3-0.5,0.7-0.9,1-1.3c2.6-2.6,4.1-6.1,4.1-9.8c0-3.7-1.4-7.2-4.1-9.8c-0.4-0.4-0.7-0.8-1-1.3c0.4-0.1,0.8-0.1,1.2-0.1
	c7.1,0,13-5.8,13-13c0-0.4,0-0.8,0.1-1.2c0.5,0.3,0.9,0.7,1.3,1.1c2.6,2.6,6.1,4.1,9.8,4.1s7.2-1.4,9.8-4.1
	C160,51.2,160.4,50.9,160.8,50.5z M178.8,65.9c3.7,1.8,6.2,5.6,6.2,10c0,4.4-2.5,8.2-6.2,10c-0.6-1-1.3-1.9-2.1-2.8
	c-2-2-3-4.5-3-7.2c0-2.8,1-5.3,3-7.2C177.4,67.8,178.1,66.9,178.8,65.9z M159.7,104.9c-1.8,3.7-5.6,6.2-10,6.2
	c-4.4,0-8.2-2.5-10-6.2c1-0.6,2-1.3,2.8-2.1c2-2,4.5-3,7.2-3c2.7,0,5.3,1,7.2,3C157.8,103.6,158.7,104.3,159.7,104.9z M120.7,85.9
	c-3.7-1.8-6.2-5.6-6.2-10c0-4.4,2.5-8.2,6.2-10c0.6,1,1.3,1.9,2.1,2.8c2,2,3,4.5,3,7.2s-1.1,5.3-3,7.2
	C122.1,83.9,121.4,84.8,120.7,85.9z M149.7,112.9c5.1,0,9.5-2.9,11.6-7.2c1.7,0.7,3.5,1.1,5.4,1.1c3.7,0,7.2-1.4,9.8-4.1
	c2.6-2.6,4.1-6.1,4.1-9.8c0-1.9-0.4-3.7-1.1-5.4c4.3-2.1,7.2-6.5,7.2-11.6s-2.9-9.5-7.2-11.6c0.7-1.7,1.1-3.5,1.1-5.4
	c0-3.7-1.4-7.2-4.1-9.8c-2.6-2.6-6.1-4.1-9.8-4.1c-1.9,0-3.7,0.4-5.4,1.1c-2.1-4.3-6.5-7.3-11.6-7.3c-5.1,0-9.5,3-11.6,7.3
	c-1.7-0.7-3.5-1.1-5.4-1.1c-3.7,0-7.2,1.4-9.8,4.1c-2.6,2.6-4.1,6.1-4.1,9.8c0,1.9,0.3,3.7,1.1,5.4c-4.3,2.1-7.2,6.5-7.2,11.6
	s2.9,9.5,7.2,11.6c-0.7,1.7-1.1,3.5-1.1,5.4c0,3.7,1.4,7.2,4.1,9.8c2.6,2.6,6.1,4.1,9.8,4.1c1.9,0,3.7-0.4,5.4-1.1
	C140.3,109.9,144.6,112.9,149.7,112.9z M162.5,102.2c0.1-0.7,0.2-1.4,0.2-2.2c0-6.1,5-11.1,11.1-11.1c0.7,0,1.5-0.1,2.2-0.2
	c0.6,1.3,0.9,2.8,0.9,4.3c0,2.7-1.1,5.3-3,7.2c-2,2-4.5,3-7.2,3C165.3,103.1,163.8,102.8,162.5,102.2z M176.1,63.1
	c-0.7-0.1-1.5-0.2-2.2-0.2c-6.1,0-11.1-5-11.1-11.1c0-0.7-0.1-1.5-0.2-2.2c1.3-0.6,2.8-0.9,4.3-0.9c2.8,0,5.3,1,7.2,3
	c1.9,2,3,4.5,3,7.2C177,60.4,176.7,61.8,176.1,63.1z M137,49.6c-0.1,0.7-0.2,1.5-0.2,2.2c0,6.1-5,11.1-11.1,11.1
	c-0.7,0-1.5,0.1-2.2,0.2c-0.6-1.3-0.9-2.8-0.9-4.3c0-2.7,1.1-5.3,3-7.2c2-2,4.5-3,7.2-3C134.2,48.7,135.7,49,137,49.6z M123.4,88.6
	c0.7,0.1,1.4,0.2,2.2,0.2c6.1,0,11.1,5,11.1,11.1c0,0.7,0.1,1.5,0.2,2.2c-1.3,0.6-2.8,0.9-4.3,0.9c-2.8,0-5.3-1-7.2-3
	c-2-2-3-4.5-3-7.2C122.5,91.4,122.8,90,123.4,88.6z"/>
</svg>
