<?xml version="1.0" encoding="utf-8"?>
<!-- Generator: Adobe Illustrator 19.2.1, SVG Export Plug-In . SVG Version: 6.00 Build 0)  -->
<!DOCTYPE svg PUBLIC "-//W3C//DTD SVG 1.1//EN" "http://www.w3.org/Graphics/SVG/1.1/DTD/svg11.dtd">
<svg version="1.1" id="Layer_1" xmlns="http://www.w3.org/2000/svg" xmlns:xlink="http://www.w3.org/1999/xlink" x="0px" y="0px"
	 viewBox="0 0 300 150" style="enable-background:new 0 0 300 150;" xml:space="preserve">
<style type="text/css">
	.st0{fill:#FFC23B;}
</style>
<g transform="translate(8 8)">
	<path class="st0" d="M233.3,99.1v11.2h20.2c4.1,0,11.3-3,11.5-11.5v-4.3c0-7.2-5.9-11.5-11.5-11.5h-10.1v-5.2h20V66.5h-19.2
		c-4.9,0-11.6,4.1-11.6,11.7v3.9c0,7.6,6.6,11.5,11.6,11.5c13.9,0.1-3.3,0,9.5,0v5.4 M125,96.4c0,0,10.8-0.9,10.8-14.9
		s-13.1-15.3-13.1-15.3H99.1v44.1H111V99.7l10.3,10.6h17.6L125,96.4z M120.4,87.4H111V77.3h9.5c0,0,2.7,1,2.7,5
		C123.1,86.3,120.4,87.4,120.4,87.4z M165.1,66.5h-12.1c-8.6,0-11.5,7.8-11.5,11.5v32.3h12.1v-7.7h11.3v7.7h11.7V78
		C176.6,68.6,168.1,66.5,165.1,66.5z M164.9,90.1h-11.4V79.4c0,0,0-2.4,3.8-2.4h4.1c3.3,0,3.4,2.4,3.4,2.4L164.9,90.1
		C164.9,90.1,164.9,90.1,164.9,90.1z"/>
	<rect x="182.1" y="66.5" class="st0" width="12.6" height="43.8"/>
	<polygon class="st0" points="212.3,99 212.3,66.5 199.8,66.5 199.8,99 199.8,110.3 212.3,110.3 229.2,110.3 229.2,99 	"/>
	<path class="st0" d="M24.6,110.3h48.9c0,0-9.3-42.6,21.6-59.9c6.7-3.3,28.2-15.5,63.3,10.5c1.1-0.9,2.2-1.7,2.2-1.7
		s-32.2-32.1-68-28.5c-18,1.6-40.1,18-53.1,39.6S24.6,110.3,24.6,110.3z"/>
	<path class="st0" d="M24.6,110.3h48.9c0,0-9.3-42.6,21.6-59.9c6.7-3.3,28.2-15.5,63.3,10.5c1.1-0.9,2.2-1.7,2.2-1.7
		s-32.2-32.1-68-28.5c-18,1.6-40.1,18-53.1,39.6S24.6,110.3,24.6,110.3z"/>
	<path class="st0" d="M24.6,110.3h48.9c0,0-9.3-42.6,21.6-59.9c6.7-3.3,28.2-15.5,63.3,10.5c1.1-0.9,2.2-1.7,2.2-1.7
		s-32.2-32.1-68-28.5c-18.1,1.6-40.2,18-53.2,39.6S24.6,110.3,24.6,110.3z M126.4,34.2l0.2-4.1c-0.6-0.3-2.1-1.1-6-2.2l-0.2,4.1
		C122.4,32.7,124.4,33.4,126.4,34.2z"/>
	<path class="st0" d="M120.5,47.3l-0.2,3.9c2,0.1,4.1,0.3,6.1,0.7l0.2-3.8C124.5,47.7,122.5,47.4,120.5,47.3z M97.6,28h0.6L97,24.2
		c-1.9,0-3.9,0.1-5.9,0.4l1.2,3.6C94,28.1,95.8,28,97.6,28z M100.6,50.8L102,55c1.8-0.9,3.6-1.6,5.4-2.2l-1.4-4.1
		C103.9,49.4,102.1,50.1,100.6,50.8z M72.5,34.5l-2.8-4.3c-1.5,0.8-3.2,1.7-4.8,2.7l2.8,4.3C69.3,36.2,70.9,35.3,72.5,34.5z
		 M85.2,62.3l3,4.5c1.1-1.5,2.3-3,3.6-4.4L89,58.2C87.6,59.5,86.3,60.9,85.2,62.3z M76.2,82.3l5,4c0.2-2.4,0.7-4.8,1.3-7.2l-4.5-3.5
		C77.3,77.7,76.7,80,76.2,82.3z M49.1,52.9L44.7,49c-1.6,1.5-3.2,3.1-4.6,4.6l4.8,4.1C46.2,56.1,47.6,54.4,49.1,52.9z M30.4,80.5
		l-7.1-2.6c-1.2,2.7-2.5,5.8-3.1,7.4l7.1,2.6C28.2,85.8,29.5,82.8,30.4,80.5z M75.3,98c0.1,3.3,0.4,5.9,0.7,7.8l7.4,2.7
		c-0.6-2.4-1.1-5.1-1.5-8L75.3,98z"/>
</g>
</svg>
